<?xml version="1.0" encoding="UTF-8"?><svg id="layerpresen..." xmlns="http://www.w3.org/2000/svg" viewBox="0 0 1555.018 405.244"><g id="iconmark"><path d="M296.957,119.471c3.278-2.771,5.507-6.605,6.212-10.84,1.362-8.188-1.115-16.891-7.432-23.208l-48.478-48.478c-17.539-17.539-45.976-17.539-63.516,0l-48.478,48.478c-6.252,6.252-8.743,14.839-7.474,22.953.672,4.299,2.945,8.19,6.279,10.987,69.815,58.575,93.385,58.863,162.887.108Z" fill="#fff"/><path d="M131.684,284.742c58.773-69.517,58.773-93.367,0-162.884-2.779-3.287-6.624-5.526-10.871-6.229-8.183-1.355-16.877,1.123-23.189,7.435l-48.439,48.439c-17.561,17.561-17.561,46.032,0,63.593l48.439,48.439c6.313,6.313,15.007,8.79,23.19,7.435,4.247-.703,8.092-2.942,10.871-6.229Z" fill="#fff"/><path d="M299.407,121.908c-58.501,69.744-58.499,93.045.006,162.792,2.814,3.354,6.727,5.647,11.054,6.317,8.102,1.254,16.671-1.239,22.912-7.48l48.4-48.4c17.582-17.582,17.582-46.089,0-63.671l-48.4-48.4c-6.123-6.123-14.488-8.639-22.453-7.547-4.498.616-8.601,2.912-11.519,6.39Z" fill="#fff"/><path d="M134.108,287.206c-3.478,2.918-5.773,7.02-6.39,11.519-1.092,7.965,1.424,16.33,7.547,22.453l48.399,48.399c17.583,17.583,46.091,17.583,63.674,0l48.399-48.399c6.307-6.307,8.786-14.991,7.439-23.167-.702-4.261-2.951-8.118-6.249-10.906-69.465-58.719-93.043-58.433-162.818.102Z" fill="#fff"/></g><rect x="448.87" y="70.776" width="1081.325" height="247.002" fill="none"/><path d="M544.474,93.953c42.639,0,74.683,21.981,74.683,67.267,0,45.021-32.044,70.181-74.683,70.181h-29.926v81.038h-49.788V93.953h79.714ZM528.584,191.675c19.598,0,38.136-6.621,38.136-28.867,0-22.511-18.538-29.131-38.136-29.131h-14.036v57.998h14.036Z" fill="#fff"/><path d="M634.518,176.58h46.876v19.597h.529s14.831-23.57,41.578-23.57c17.479,0,29.661,8.475,29.661,8.475l-19.597,39.725s-8.74-7.415-24.365-7.415c-24.364,0-27.807,24.1-27.807,27.542v71.505h-46.876v-135.858Z" fill="#fff"/><path d="M836.851,172.608c45.021,0,81.038,29.661,81.038,72.034,0,41.844-34.163,71.77-81.038,71.77-48.994,0-81.833-29.926-81.833-71.77,0-42.373,36.018-72.034,81.833-72.034ZM836.586,276.421c18.273,0,31.515-13.241,31.515-31.779,0-18.803-14.036-32.045-31.515-32.045-17.744,0-31.78,13.242-31.78,32.045,0,18.538,12.712,31.779,31.78,31.779Z" fill="#fff"/><path d="M946.497,147.714c.265-39.725,19.333-67.002,53.231-67.002,23.835,0,38.665,12.182,38.665,12.182l-16.419,33.104s-6.356-3.708-14.036-3.708c-11.918,0-14.566,7.945-14.566,26.748v27.542h31.25v35.752h-31.25v100.106h-46.875v-100.106h-19.598v-35.752h19.598v-28.867Z" fill="#fff"/><path d="M1109.9,172.608c45.021,0,81.039,29.661,81.039,72.034,0,41.844-34.163,71.77-81.039,71.77-48.993,0-81.832-29.926-81.832-71.77,0-42.373,36.017-72.034,81.832-72.034ZM1109.636,276.421c18.273,0,31.516-13.241,31.516-31.779,0-18.803-14.036-32.045-31.516-32.045-17.743,0-31.779,13.242-31.779,32.045,0,18.538,12.712,31.779,31.779,31.779Z" fill="#fff"/><path d="M1212.394,84.684h46.875v227.755h-46.875V84.684Z" fill="#fff"/><path d="M1342.958,120.436c0,15.36-12.447,27.808-27.808,27.808s-27.808-12.447-27.808-27.808,12.447-27.807,27.808-27.807,27.808,12.447,27.808,27.807ZM1291.051,312.439h46.875v-135.858h-46.875v135.858Z" fill="#fff"/><path d="M1443.062,172.608c45.021,0,81.038,29.661,81.038,72.034,0,41.844-34.163,71.77-81.038,71.77-48.994,0-81.833-29.926-81.833-71.77,0-42.373,36.018-72.034,81.833-72.034ZM1442.798,276.421c18.273,0,31.515-13.241,31.515-31.779,0-18.803-14.036-32.045-31.515-32.045-17.744,0-31.78,13.242-31.78,32.045,0,18.538,12.712,31.779,31.78,31.779Z" fill="#fff"/></svg>