<?xml version="1.0" encoding="UTF-8"?><svg id="blck-nobg" xmlns="http://www.w3.org/2000/svg" viewBox="0 0 748.84 721.929"><g id="iconmark"><path d="M533.856,210.82c5.918-5.003,9.942-11.924,11.213-19.568,2.458-14.781-2.013-30.49-13.416-41.894l-87.51-87.51c-31.661-31.661-82.995-31.661-114.656,0l-87.51,87.51c-11.285,11.285-15.782,26.787-13.491,41.434,1.214,7.761,5.316,14.784,11.334,19.833,126.028,105.738,168.575,106.258,294.037.194Z"/><path d="M235.511,509.161c106.095-125.49,106.095-168.542,0-294.031-5.017-5.934-11.957-9.975-19.624-11.244-14.772-2.446-30.466,2.027-41.861,13.422l-87.441,87.441c-31.7,31.7-31.7,83.095,0,114.795l87.441,87.441c11.395,11.395,27.089,15.868,41.861,13.422,7.666-1.27,14.606-5.31,19.624-11.244Z"/><path d="M538.278,215.219c-105.603,125.899-105.599,167.961.01,293.866,5.079,6.055,12.143,10.194,19.954,11.403,14.625,2.264,30.093-2.237,41.359-13.503l87.37-87.37c31.739-31.739,31.739-83.197,0-114.936l-87.37-87.37c-11.054-11.054-26.153-15.594-40.531-13.624-8.12,1.113-15.526,5.256-20.793,11.535Z"/><path d="M239.887,513.608c-6.279,5.267-10.422,12.673-11.535,20.793-1.971,14.379,2.57,29.478,13.624,40.532l87.368,87.368c31.74,31.74,83.201,31.74,114.941,0l87.368-87.368c11.385-11.385,15.86-27.061,13.428-41.821-1.267-7.692-5.327-14.654-11.281-19.687-125.396-105.997-167.957-105.481-293.913.183Z"/></g></svg>